<svg width="8" height="8" viewBox="0 0 8 8" fill="none" xmlns="http://www.w3.org/2000/svg">
<path fill-rule="evenodd" clip-rule="evenodd" d="M2.0025 1.13564C2.56253 0.575612 3.50757 0.618185 3.89751 1.31689L4.11385 1.70454C4.36849 2.16081 4.25998 2.7365 3.88721 3.11383C3.88225 3.12063 3.85593 3.15894 3.85266 3.22588C3.84847 3.31132 3.87882 3.50891 4.18496 3.81505C4.491 4.1211 4.68857 4.15151 4.77405 4.14736C4.84104 4.1441 4.87938 4.11777 4.88619 4.1128C5.26351 3.74003 5.83921 3.63152 6.29548 3.88616L6.68312 4.1025C7.38183 4.49244 7.4244 5.43749 6.86438 5.99751C6.56483 6.29706 6.16652 6.56323 5.69845 6.58097C5.00481 6.60727 3.85306 6.42814 2.71247 5.28754C1.57187 4.14695 1.39275 2.9952 1.41904 2.30156C1.43679 1.83349 1.70295 1.43519 2.0025 1.13564ZM3.4609 1.56056C3.26123 1.20278 2.72467 1.12058 2.35606 1.48919C2.09761 1.74764 1.92959 2.03291 1.91868 2.3205C1.89675 2.89895 2.03957 3.90753 3.06602 4.93399C4.09248 5.96045 5.10106 6.10326 5.67951 6.08133C5.9671 6.07043 6.25238 5.9024 6.51083 5.64396C6.87943 5.27534 6.79724 4.73878 6.43946 4.53911L6.05181 4.32277C5.81068 4.1882 5.47197 4.2341 5.2342 4.47187L5.23412 4.47194C5.21077 4.49528 5.06216 4.63393 4.79834 4.64677C4.52827 4.6599 4.20135 4.53855 3.83141 4.16861C3.46134 3.79854 3.34003 3.47154 3.35325 3.20142C3.36617 2.93759 3.50491 2.78905 3.52813 2.76583L3.52814 2.76582C3.76591 2.52805 3.81182 2.18934 3.67724 1.9482L3.4609 1.56056Z" fill="black"/>
</svg>
